<svg width="112" height="50" viewBox="0 0 112 50" fill="none" xmlns="http://www.w3.org/2000/svg">
<g clip-path="url(#clip0)">
<path d="M25.3982 27.6023C25.2859 24.3515 23.9012 21.271 21.536 19.0106C19.1709 16.7502 16.0104 15.4866 12.7213 15.4866C9.43217 15.4866 6.27168 16.7502 3.90657 19.0106C1.54146 21.271 0.156706 24.3515 0.0444336 27.6023V40.2047H4.70124V27.6754C4.65464 26.5994 4.82872 25.5251 5.21298 24.5174C5.59725 23.5096 6.18378 22.5892 6.93722 21.8115C7.69066 21.0338 8.59544 20.415 9.59711 19.9922C10.5988 19.5694 11.6765 19.3514 12.7656 19.3514C13.8547 19.3514 14.9325 19.5694 15.9342 19.9922C16.9359 20.415 17.8406 21.0338 18.5941 21.8115C19.3475 22.5892 19.9341 23.5096 20.3183 24.5174C20.7026 25.5251 20.8767 26.5994 20.8301 27.6754V40.2047H25.3982V27.6316V27.6023Z" fill="#F7941D"/>
<path d="M112 27.6462V15.1023H107.387V27.6462C107.387 29.7633 106.537 31.7937 105.023 33.2907C103.509 34.7877 101.456 35.6286 99.3156 35.6286C97.1748 35.6286 95.1217 34.7877 93.608 33.2907C92.0942 31.7937 91.2438 29.7633 91.2438 27.6462V15.1023H86.6313V27.6901C86.6313 31.0169 87.9677 34.2075 90.3464 36.5599C92.7252 38.9124 95.9515 40.2339 99.3156 40.2339C102.68 40.2339 105.906 38.9124 108.285 36.5599C110.663 34.2075 112 31.0169 112 27.6901V27.6462Z" fill="#414042"/>
<path d="M54.1667 26.8714V0H49.5542V17.9971C47.323 16.1839 44.5341 15.1759 41.6465 15.1391C38.7589 15.1022 35.9446 16.0386 33.6668 17.7942C31.3891 19.5498 29.7835 22.02 29.1145 24.7982C28.4454 27.5764 28.7527 30.4971 29.9858 33.0795C31.2188 35.662 33.3041 37.7524 35.8986 39.0067C38.493 40.261 41.4419 40.6045 44.26 39.9805C47.0781 39.3566 49.5975 37.8024 51.4035 35.5739C53.2094 33.3454 54.1944 30.5752 54.1963 27.7193C54.2015 27.4363 54.1916 27.1533 54.1667 26.8714ZM41.4972 35.7164C39.9205 35.7203 38.3769 35.2692 37.0556 34.4182C35.7344 33.5673 34.6929 32.3537 34.059 30.926C33.425 29.4983 33.2261 27.9187 33.4866 26.3809C33.7472 24.8431 34.4558 23.4138 35.5257 22.2685C36.5956 21.1231 37.9802 20.3113 39.5097 19.9328C41.0392 19.5542 42.6472 19.6252 44.1365 20.1371C45.6258 20.6491 46.9317 21.5796 47.894 22.8148C48.8564 24.0499 49.4334 25.536 49.5542 27.0906V28.0994C49.4556 30.1488 48.5643 32.0822 47.0647 33.5C45.5651 34.9177 43.5718 35.7112 41.4972 35.7164Z" fill="#414042"/>
<path d="M82.4479 27.8801C82.4538 25.02 81.4745 22.2432 79.6714 20.0069C77.8683 17.7707 75.3489 16.2084 72.528 15.5773C69.7071 14.9462 66.753 15.2839 64.1522 16.5348C61.5513 17.7858 59.4588 19.8754 58.2192 22.4595C56.9796 25.0436 56.6668 27.9681 57.3324 30.7515C57.9979 33.5348 59.6021 36.0111 61.8808 37.7724C64.1595 39.5338 66.9768 40.4751 69.8688 40.4416C72.7607 40.408 75.5549 39.4015 77.7911 37.5877V40.2778H82.4184V28.7281C82.4332 28.5088 82.4479 28.1579 82.4479 27.8801ZM77.8059 27.5V28.5088C77.6753 30.5866 76.732 32.5325 75.1758 33.9344C73.6196 35.3363 71.5728 36.0842 69.4687 36.0195C67.3646 35.9549 65.3686 35.0829 63.9034 33.5882C62.4381 32.0935 61.6188 30.0935 61.6188 28.0117C61.6188 25.9299 62.4381 23.9299 63.9034 22.4352C65.3686 20.9405 67.3646 20.0685 69.4687 20.0039C71.5728 19.9393 73.6196 20.6871 75.1758 22.089C76.732 23.491 77.6753 25.4369 77.8059 27.5147V27.5Z" fill="#414042"/>
<path d="M25.1616 50V45.4386H7.82013e-05V50H25.1616Z" fill="#F7941D"/>
</g>
<defs>
<clipPath id="clip0">
<rect width="112" height="50" fill="white"/>
</clipPath>
</defs>
</svg>
